<svg width="166" height="47" viewBox="0 0 166 47" fill="none" xmlns="http://www.w3.org/2000/svg">
<path d="M45.1357 43.6642C44.1501 43.6642 43.3288 43.2535 42.7538 42.5964V43.4999H41.2754V33.808H42.7538V37.5862C43.3288 36.9291 44.1501 36.5184 45.1357 36.5184C47.107 36.5184 48.5033 38.079 48.5033 40.1324C48.5033 42.0215 47.107 43.6642 45.1357 43.6642ZM44.8893 37.8326C43.6573 37.8326 42.7538 38.8182 42.7538 40.0502C42.7538 41.2823 43.6573 42.2679 44.8893 42.2679C46.1214 42.2679 47.0248 41.2823 47.0248 40.0502C46.9427 38.8182 46.1214 37.8326 44.8893 37.8326Z" fill="white"/>
<path d="M50.3924 46.539L51.6244 43.4179L48.9961 36.6007H50.5567L52.3636 41.5288L54.1706 36.6007H55.7312L51.953 46.539H50.3924Z" fill="white"/>
<path d="M61.3984 41.1179C62.0555 41.8571 62.8768 42.3499 63.7803 42.3499C64.8481 42.3499 65.5873 41.8571 65.5873 41.0358C65.5873 40.2966 65.0945 39.7216 63.5339 39.3931C61.6448 38.9824 60.6592 38.0789 60.6592 36.6826C60.6592 35.1221 61.8912 34.0543 63.6982 34.0543C65.3409 34.0543 66.8193 34.9578 66.9836 36.7648H65.423C65.3409 35.8613 64.6838 35.3685 63.7803 35.3685C62.8768 35.3685 62.3019 35.8613 62.3019 36.5184C62.3019 37.2576 62.8768 37.7504 64.2731 38.0789C66.3265 38.5717 67.23 39.4752 67.23 40.9537C67.23 42.5142 65.9979 43.6641 63.8624 43.6641C62.6304 43.6641 61.4805 43.007 60.6592 41.9393L61.3984 41.1179Z" fill="white"/>
<path d="M69.1189 46.5388L70.351 43.4177L67.7227 36.6005H69.2832L71.0902 41.5286L72.8972 36.6005H74.4577L70.6795 46.5388H69.1189Z" fill="white"/>
<path d="M81.8498 39.229V43.4179H80.3714V39.3111C80.3714 38.4076 79.7143 37.7506 78.8108 37.7506C77.9073 37.7506 77.0038 38.5719 77.0038 39.6397V43.4179H75.5254V36.6007H77.0038V37.5042C77.4966 36.8471 78.2358 36.4364 79.0572 36.4364C80.782 36.4364 81.8498 37.5863 81.8498 39.229Z" fill="white"/>
<path d="M89.8991 41.7752C89.242 43.0072 88.1743 43.6643 86.8601 43.6643C84.8068 43.6643 83.1641 42.1037 83.1641 40.0503C83.1641 37.997 84.7246 36.4364 86.6959 36.4364C88.4207 36.4364 89.6527 37.3399 90.0634 38.9004H88.4207C88.1743 38.2434 87.5993 37.7506 86.778 37.7506C85.7102 37.7506 84.7246 38.654 84.7246 39.9682C84.7246 41.3645 85.7924 42.1858 86.9423 42.1858C87.7636 42.1858 88.5028 41.7752 89.0778 41.036L89.8991 41.7752Z" fill="white"/>
<path d="M95.1561 35.1221C94.9918 35.1221 94.7454 35.1221 94.5811 35.1221C93.6777 35.1221 93.3491 35.5328 93.3491 36.272V36.6827H95.1561V37.9147H93.3491V43.4178H91.8707V37.9147H90.6387V36.6006H91.8707V36.1899C91.8707 34.5472 92.692 33.808 94.4169 33.808C94.6633 33.808 94.9918 33.808 95.1561 33.8901V35.1221Z" fill="white"/>
<path d="M96.2236 40.8716V36.6827H97.7021V40.7895C97.7021 41.693 98.3591 42.35 99.2626 42.35C100.248 42.35 101.07 41.5287 101.07 40.3788V36.6827H102.548V43.4999H101.07V42.5965C100.577 43.2535 99.8376 43.6642 99.0162 43.6642C97.2914 43.5821 96.2236 42.5143 96.2236 40.8716Z" fill="white"/>
<path d="M104.683 41.5287C105.176 42.0215 105.751 42.4321 106.49 42.4321C107.23 42.4321 107.722 42.1036 107.722 41.6108C107.722 41.118 107.312 40.7894 106.408 40.6252C104.93 40.2966 104.191 39.5574 104.191 38.4897C104.191 37.3398 105.094 36.5184 106.573 36.5184C107.969 36.5184 108.954 37.2576 109.119 38.5718H107.64C107.558 38.079 107.23 37.7505 106.655 37.7505C106.08 37.7505 105.669 38.079 105.669 38.4897C105.669 38.9003 106.08 39.311 106.901 39.4753C108.462 39.8038 109.201 40.4609 109.201 41.6108C109.201 42.7607 108.215 43.6642 106.573 43.6642C105.505 43.6642 104.683 43.1714 104.026 42.35L104.683 41.5287Z" fill="white"/>
<path d="M111.418 33.808C111.911 33.808 112.322 34.2187 112.322 34.7115C112.322 35.2043 111.911 35.615 111.418 35.615C110.925 35.615 110.515 35.2043 110.515 34.7115C110.515 34.2187 110.925 33.808 111.418 33.808ZM110.679 36.6006H112.157V43.4178H110.679V36.6006Z" fill="white"/>
<path d="M117.414 36.4364C119.549 36.4364 121.192 37.997 121.192 40.0503C121.192 42.1037 119.632 43.6643 117.414 43.6643C115.278 43.6643 113.636 42.1037 113.636 40.0503C113.636 37.997 115.278 36.4364 117.414 36.4364ZM117.414 42.268C118.646 42.268 119.632 41.2824 119.632 40.0503C119.632 38.8183 118.646 37.8327 117.414 37.8327C116.182 37.8327 115.196 38.8183 115.196 40.0503C115.196 41.2824 116.182 42.268 117.414 42.268Z" fill="white"/>
<path d="M128.913 39.229V43.4179H127.435V39.3111C127.435 38.4076 126.778 37.7506 125.874 37.7506C124.971 37.7506 124.067 38.5719 124.067 39.6397V43.4179H122.589V36.6007H124.067V37.5042C124.56 36.8471 125.299 36.4364 126.121 36.4364C127.846 36.4364 128.913 37.5863 128.913 39.229Z" fill="white"/>
<path d="M15.4981 30.9437C23.9345 30.9437 30.7735 24.1046 30.7735 15.6683C30.7735 7.23187 23.9345 0.392822 15.4981 0.392822C7.0617 0.392822 0.222656 7.23187 0.222656 15.6683C0.222656 24.1046 7.0617 30.9437 15.4981 30.9437Z" fill="#FF4800"/>
<path d="M17.578 17.9266L14.7724 25.3143C14.6666 25.5961 14.4076 25.7297 14.1522 25.7189C13.9187 25.7081 13.6889 25.5744 13.5904 25.3179L7.56333 9.63574C7.5086 9.49485 7.57063 9.36841 7.67278 9.30338C7.77493 9.23835 7.91722 9.23474 8.02302 9.34312L13.4554 14.8378C13.1489 15.7193 13.5502 16.7959 14.6885 17.1499C14.9403 17.2294 15.2175 17.233 15.4693 17.1571C16.9286 16.72 17.2132 15.0763 16.3193 14.1731C15.8305 13.6782 15.13 13.5481 14.5207 13.7649L9.07374 8.25212C8.96794 8.14374 8.97159 8.00285 9.04091 7.90531C9.10658 7.80416 9.23792 7.74636 9.37655 7.80055L24.9221 13.9094C25.1884 14.0142 25.3198 14.2526 25.3198 14.491C25.3198 14.7295 25.1848 14.9679 24.9185 15.0727L17.578 17.9266Z" fill="white"/>
<path d="M49.848 25.9715C53.4413 25.9715 55.8837 23.5492 55.8837 20.1779C55.8837 17.784 54.4099 16.0558 52.4588 15.5176C53.9045 14.8943 54.8871 13.4211 54.8871 11.5088C54.8871 8.2933 52.6132 6.14019 48.9496 6.14019H41.3418V25.9715H49.848ZM48.5987 14.016H45.8475V9.90813H48.5987C49.7497 9.90813 50.5638 10.6447 50.5638 11.9621C50.5638 13.2795 49.7497 14.016 48.5987 14.016ZM49.1742 22.2035H45.8475V17.6423H49.1742C50.4094 17.6423 51.2797 18.5348 51.2797 19.9229C51.2797 21.297 50.4094 22.2035 49.1742 22.2035ZM65.9339 26.3115C70.58 26.3115 74.0751 22.9401 74.0751 18.6339C74.0751 14.3277 70.58 10.9564 65.9339 10.9564C61.2878 10.9564 57.7927 14.3277 57.7927 18.6339C57.7927 22.9401 61.2878 26.3115 65.9339 26.3115ZM65.9339 22.3169C63.8424 22.3169 62.2703 20.7304 62.2703 18.6339C62.2703 16.5516 63.8424 14.951 65.9339 14.951C68.0253 14.951 69.5974 16.5516 69.5974 18.6339C69.5974 20.7304 68.0253 22.3169 65.9339 22.3169ZM81.2057 25.9715V5.29027H76.6999V25.9715H81.2057ZM90.6944 26.3115C92.6034 26.3115 94.1755 25.5749 95.3125 24.3567V25.9715H99.748V5.29027H95.3125V12.9112C94.1755 11.693 92.6034 10.9564 90.6944 10.9564C86.694 10.9564 83.8586 14.3277 83.8586 18.6339C83.8586 22.9401 86.694 26.3115 90.6944 26.3115ZM91.8033 22.3169C89.8522 22.3169 88.3363 20.7304 88.3363 18.6339C88.3363 16.5516 89.8522 14.951 91.8033 14.951C93.7684 14.951 95.3125 16.5516 95.3125 18.6339C95.3125 20.7304 93.7684 22.3169 91.8033 22.3169ZM110.177 26.3115C114.641 26.3115 117.434 23.6626 117.434 20.1213C117.434 16.9624 115.371 14.9226 111.174 13.9452C108.591 13.3503 107.805 12.472 107.805 11.3672C107.805 10.3756 108.731 9.68149 110.051 9.68149C111.384 9.68149 112.255 10.5031 112.451 11.9479H116.999C116.676 7.93917 113.7 5.80022 109.84 5.80022C105.854 5.80022 103.117 8.2933 103.117 11.7354C103.117 14.781 105.349 16.8774 109.068 17.6848C112.03 18.3223 112.746 19.2289 112.746 20.3479C112.746 21.5661 111.609 22.3735 109.967 22.3735C108.016 22.3735 106.5 21.5661 104.942 20.0504L103.019 22.1894C105.068 25.0224 107.594 26.3115 110.177 26.3115ZM122.403 9.93647C123.863 9.93647 124.986 8.87407 124.986 7.45755C124.986 6.05519 123.863 4.97864 122.403 4.97864C120.943 4.97864 119.82 6.05519 119.82 7.45755C119.82 8.87407 120.943 9.93647 122.403 9.93647ZM124.649 25.9715V11.2963H120.143V25.9715H124.649ZM135.387 32.5442C140.244 32.5442 143.191 29.6686 143.191 25.0366V11.2963H138.756V12.9112C137.619 11.693 136.047 10.9564 134.138 10.9564C130.137 10.9564 127.302 14.3277 127.302 18.6339C127.302 22.7985 130.137 26.1698 134.138 26.1698C136.047 26.1698 137.619 25.4332 138.756 24.2292V25.3199C138.756 27.5297 137.198 28.8045 134.882 28.8045C133.085 28.8045 131.653 28.1954 130.292 27.0197L128.453 29.3853C130.418 31.5101 132.706 32.5442 135.387 32.5442ZM135.247 22.3169C133.295 22.3169 131.779 20.7304 131.779 18.6339C131.779 16.5516 133.295 14.951 135.247 14.951C137.212 14.951 138.756 16.5516 138.756 18.6339C138.756 20.7304 137.212 22.3169 135.247 22.3169ZM151.234 25.9715V18.039C151.234 16.0275 152.455 14.951 153.915 14.951C155.221 14.951 156.259 16.1692 156.259 17.4865V25.9715H160.765V16.7641C160.765 13.2936 158.449 10.9564 155.263 10.9564C153.606 10.9564 152.217 11.6363 151.234 12.8403V11.2963H146.728V25.9715H151.234Z" fill="white"/>
</svg>
